# xmcd
#
# Track frame offsets:
#	150
#	19760
#	34322
#	67247
#	91010
#	122385
#	135272
#	157022
#	176460
#	188135
#	202372
#	221072
#	231697
#	241685
#	254497
#
# Disc length: 3579 seconds
#
# Revision: 3
# Processed by: cddbd v1.5.2PL0 Copyright (c) Steve Scherf et al.
# Submitted via: EasyCDDAExtractor 11.1.0.1
#
DISCID=d90df90f
DTITLE=Various Artist - Cooking Rhythms - Sampler 1998
DYEAR=1998
DGENRE=Blues
TTITLE0=Andy White - Get Back Home
TTITLE1=Bert Jansch - All I Got
TTITLE2=The Bhundu Boys - Kachembere
TTITLE3=Chuck Prophet - Ooh Wee
TTITLE4=Rory McLeod - A Foreigner Forever
TTITLE5=Ewan MacColl - Dirty Old Town
TTITLE6=Jackie Leven - Pourtoun
TTITLE7=Tom Robinson - Disrespect
TTITLE8=June Tabor - Beauty And The Beast
TTITLE9=Pere Ubu - My Friend Is A Stooge For The Media Police
TTITLE10=Carter USM - CB Radio
TTITLE11=Wedding Present - Jet Girl
TTITLE12=Dave Swarbrick - Medley: Drowsy Maggie
TTITLE13=Savourna Stephenson - Singing The Storm
TTITLE14=Incantation - Cacharpaya
EXTD=1998\n\nFestival\n
EXTT0=
EXTT1=
EXTT2=
EXTT3=
EXTT4=
EXTT5=
EXTT6=
EXTT7=
EXTT8=
EXTT9=
EXTT10=
EXTT11=
EXTT12=
EXTT13=
EXTT14=
PLAYORDER=
